<svg width="800" height="800" viewBox="0 0 800 800" fill="none" xmlns="http://www.w3.org/2000/svg">
<g clip-path="url(#clip0_12409_159847)">
<rect width="800" height="800" rx="400" fill="#1E2126"/>
<path fill-rule="evenodd" clip-rule="evenodd" d="M466.66 79.2261C472.421 79.2261 477.092 83.897 477.092 89.6588V364.47C477.092 370.232 472.421 374.903 466.66 374.903C460.898 374.903 456.227 370.232 456.227 364.47V89.6588C456.227 83.897 460.898 79.2261 466.66 79.2261Z" fill="white"/>
<path fill-rule="evenodd" clip-rule="evenodd" d="M317.053 108.995C322.376 106.79 328.479 109.318 330.684 114.641L435.855 368.534C438.06 373.857 435.532 379.96 430.209 382.165C424.886 384.37 418.783 381.842 416.578 376.519L311.407 122.626C309.202 117.303 311.73 111.2 317.053 108.995Z" fill="white"/>
<path fill-rule="evenodd" clip-rule="evenodd" d="M190.229 193.739C194.303 189.665 200.908 189.665 204.983 193.739L399.308 388.065C403.382 392.139 403.382 398.745 399.308 402.819C395.234 406.893 388.628 406.893 384.554 402.819L190.229 208.493C186.154 204.419 186.154 197.814 190.229 193.739Z" fill="white"/>
<path fill-rule="evenodd" clip-rule="evenodd" d="M105.486 320.532C107.691 315.209 113.794 312.681 119.117 314.886L373.01 420.057C378.333 422.262 380.861 428.365 378.656 433.688C376.451 439.011 370.348 441.539 365.025 439.334L111.132 334.163C105.808 331.958 103.281 325.855 105.486 320.532Z" fill="white"/>
<path fill-rule="evenodd" clip-rule="evenodd" d="M75.7239 470.159C75.7239 464.397 80.3948 459.727 86.1567 459.727H360.968C366.73 459.727 371.401 464.397 371.401 470.159C371.401 475.921 366.73 480.592 360.968 480.592H86.1567C80.3948 480.592 75.7239 475.921 75.7239 470.159Z" fill="white"/>
<path fill-rule="evenodd" clip-rule="evenodd" d="M378.656 506.633C380.861 511.957 378.333 518.059 373.01 520.264L119.117 625.435C113.794 627.64 107.691 625.112 105.486 619.789C103.281 614.466 105.808 608.363 111.132 606.158L365.025 500.987C370.348 498.782 376.451 501.31 378.656 506.633Z" fill="white"/>
<path fill-rule="evenodd" clip-rule="evenodd" d="M399.308 537.523C403.382 541.598 403.382 548.203 399.308 552.278L204.983 746.603C200.908 750.677 194.303 750.677 190.229 746.603C186.154 742.529 186.154 735.923 190.229 731.849L384.554 537.523C388.628 533.449 395.234 533.449 399.308 537.523Z" fill="white"/>
<path fill-rule="evenodd" clip-rule="evenodd" d="M430.209 558.18C435.532 560.385 438.06 566.488 435.855 571.811L330.684 825.704C328.479 831.027 322.376 833.555 317.053 831.35C311.73 829.145 309.202 823.042 311.407 817.719L416.578 563.826C418.783 558.502 424.886 555.975 430.209 558.18Z" fill="white"/>
<path fill-rule="evenodd" clip-rule="evenodd" d="M466.66 565.457C472.421 565.457 477.092 570.127 477.092 575.889V850.701C477.092 856.462 472.421 861.133 466.66 861.133C460.898 861.133 456.227 856.462 456.227 850.701V575.889C456.227 570.127 460.898 565.457 466.66 565.457Z" fill="white"/>
<path fill-rule="evenodd" clip-rule="evenodd" d="M503.127 558.18C508.451 555.975 514.554 558.502 516.759 563.826L621.929 817.719C624.134 823.042 621.606 829.145 616.283 831.35C610.96 833.555 604.857 831.027 602.652 825.704L497.481 571.811C495.276 566.488 497.804 560.385 503.127 558.18Z" fill="white"/>
<path fill-rule="evenodd" clip-rule="evenodd" d="M534.024 537.523C538.098 533.449 544.704 533.449 548.778 537.523L743.103 731.849C747.178 735.923 747.178 742.529 743.103 746.603C739.029 750.677 732.424 750.677 728.349 746.603L534.024 552.278C529.95 548.203 529.95 541.598 534.024 537.523Z" fill="white"/>
<path fill-rule="evenodd" clip-rule="evenodd" d="M554.676 506.633C556.881 501.31 562.984 498.782 568.307 500.987L822.2 606.158C827.524 608.363 830.051 614.466 827.846 619.789C825.641 625.112 819.538 627.64 814.215 625.435L560.322 520.264C554.999 518.059 552.471 511.957 554.676 506.633Z" fill="white"/>
<path fill-rule="evenodd" clip-rule="evenodd" d="M561.941 470.159C561.941 464.397 566.612 459.727 572.374 459.727H847.185C852.947 459.727 857.618 464.397 857.618 470.159C857.618 475.921 852.947 480.592 847.185 480.592H572.374C566.612 480.592 561.941 475.921 561.941 470.159Z" fill="white"/>
<path fill-rule="evenodd" clip-rule="evenodd" d="M827.846 320.532C830.051 325.855 827.524 331.958 822.2 334.163L568.307 439.334C562.984 441.539 556.881 439.011 554.676 433.688C552.471 428.365 554.999 422.262 560.322 420.057L814.215 314.886C819.538 312.681 825.641 315.209 827.846 320.532Z" fill="white"/>
<path fill-rule="evenodd" clip-rule="evenodd" d="M743.103 193.739C747.178 197.814 747.178 204.419 743.103 208.493L548.778 402.819C544.704 406.893 538.098 406.893 534.024 402.819C529.95 398.745 529.95 392.139 534.024 388.065L728.349 193.739C732.424 189.665 739.029 189.665 743.103 193.739Z" fill="white"/>
<path fill-rule="evenodd" clip-rule="evenodd" d="M616.283 108.995C621.606 111.2 624.134 117.303 621.929 122.626L516.759 376.519C514.554 381.842 508.451 384.37 503.127 382.165C497.804 379.96 495.276 373.857 497.481 368.534L602.652 114.641C604.857 109.318 610.96 106.79 616.283 108.995Z" fill="white"/>
<path fill-rule="evenodd" clip-rule="evenodd" d="M466.657 61.8481C482.022 61.8481 494.478 74.3039 494.478 89.6688V224.502C494.478 239.867 482.022 252.322 466.657 252.322C451.292 252.322 438.837 239.867 438.837 224.502V89.6688C438.837 74.3039 451.292 61.8481 466.657 61.8481Z" fill="white"/>
<path fill-rule="evenodd" clip-rule="evenodd" d="M310.402 92.9453C324.597 87.0654 340.871 93.8065 346.751 108.002L407.195 253.928C413.075 268.123 406.334 284.397 392.138 290.277C377.943 296.157 361.669 289.416 355.789 275.221L295.345 129.295C289.465 115.099 296.206 98.8251 310.402 92.9453Z" fill="white"/>
<path fill-rule="evenodd" clip-rule="evenodd" d="M177.931 181.454C188.796 170.59 206.411 170.59 217.276 181.454L341.481 305.66C352.346 316.525 352.346 334.14 341.481 345.004C330.617 355.869 313.002 355.869 302.137 345.004L177.931 220.799C167.067 209.934 167.067 192.319 177.931 181.454Z" fill="white"/>
<path fill-rule="evenodd" clip-rule="evenodd" d="M89.424 313.892C95.3045 299.697 111.579 292.956 125.774 298.837L298.1 370.224C312.295 376.105 319.035 392.379 313.155 406.574C307.274 420.77 291 427.51 276.805 421.63L104.479 350.242C90.2839 344.361 83.5436 328.087 89.424 313.892Z" fill="white"/>
<path fill-rule="evenodd" clip-rule="evenodd" d="M58.335 470.169C58.335 454.804 70.7907 442.349 86.1557 442.349H276.417C291.782 442.349 304.238 454.804 304.238 470.169C304.238 485.534 291.782 497.99 276.417 497.99H86.1557C70.7907 497.99 58.335 485.534 58.335 470.169Z" fill="white"/>
<path fill-rule="evenodd" clip-rule="evenodd" d="M313.155 533.748C319.035 547.943 312.295 564.217 298.1 570.098L125.774 641.485C111.579 647.366 95.3045 640.626 89.424 626.43C83.5436 612.235 90.2839 595.961 104.479 590.08L276.805 518.693C291 512.812 307.274 519.553 313.155 533.748Z" fill="white"/>
<path fill-rule="evenodd" clip-rule="evenodd" d="M341.48 595.32C352.345 606.184 352.347 623.799 341.483 634.664L217.277 758.889C206.413 769.754 188.798 769.755 177.933 758.892C167.067 748.028 167.066 730.413 177.93 719.547L302.135 595.323C312.999 584.457 330.614 584.456 341.48 595.32Z" fill="white"/>
<path fill-rule="evenodd" clip-rule="evenodd" d="M392.138 650.074C406.334 655.954 413.075 672.228 407.195 686.424L346.751 832.35C340.871 846.545 324.597 853.286 310.402 847.406C296.206 841.526 289.465 825.252 295.345 811.057L355.789 665.131C361.669 650.935 377.943 644.194 392.138 650.074Z" fill="white"/>
<path fill-rule="evenodd" clip-rule="evenodd" d="M466.657 688.052C482.022 688.052 494.478 700.508 494.478 715.872V850.705C494.478 866.07 482.022 878.526 466.657 878.526C451.292 878.526 438.837 866.07 438.837 850.705V715.872C438.837 700.508 451.292 688.052 466.657 688.052Z" fill="white"/>
<path fill-rule="evenodd" clip-rule="evenodd" d="M559.768 694.931C573.963 689.05 590.238 695.79 596.119 709.984L637.993 811.053C643.875 825.248 637.135 841.523 622.94 847.404C608.745 853.285 592.47 846.545 586.589 832.351L544.715 731.282C538.834 717.087 545.574 700.812 559.768 694.931Z" fill="white"/>
<path fill-rule="evenodd" clip-rule="evenodd" d="M655.25 658.766C666.115 647.902 683.73 647.902 694.595 658.766L755.393 719.564C766.257 730.429 766.257 748.044 755.393 758.908C744.528 769.773 726.913 769.773 716.048 758.908L655.25 698.111C644.386 687.246 644.386 669.631 655.25 658.766Z" fill="white"/>
<path fill-rule="evenodd" clip-rule="evenodd" d="M728.408 578.573C734.287 564.378 750.562 557.637 764.757 563.516L828.855 590.065C843.05 595.945 849.792 612.219 843.912 626.415C838.032 640.61 821.758 647.351 807.563 641.472L743.465 614.923C729.269 609.043 722.528 592.769 728.408 578.573Z" fill="white"/>
<path fill-rule="evenodd" clip-rule="evenodd" d="M755.933 470.169C755.933 454.804 768.388 442.349 783.753 442.349H847.18C862.545 442.349 875.001 454.804 875.001 470.169C875.001 485.534 862.545 497.99 847.18 497.99H783.753C768.388 497.99 755.933 485.534 755.933 470.169Z" fill="white"/>
<path fill-rule="evenodd" clip-rule="evenodd" d="M843.912 313.893C849.792 328.089 843.05 344.363 828.855 350.243L764.757 376.791C750.562 382.671 734.287 375.93 728.408 361.734C722.528 347.539 729.269 331.265 743.465 325.385L807.563 298.836C821.758 292.957 838.032 299.698 843.912 313.893Z" fill="white"/>
<path fill-rule="evenodd" clip-rule="evenodd" d="M755.393 181.454C766.257 192.319 766.257 209.934 755.393 220.799L694.595 281.596C683.73 292.461 666.115 292.461 655.25 281.596C644.386 270.732 644.386 253.117 655.25 242.252L716.048 181.454C726.913 170.59 744.528 170.589 755.393 181.454Z" fill="white"/>
<path fill-rule="evenodd" clip-rule="evenodd" d="M622.94 92.9462C637.135 98.8274 643.875 115.102 637.993 129.297L596.119 230.366C590.238 244.561 573.963 251.3 559.768 245.419C545.574 239.538 538.834 223.263 544.715 209.068L586.589 108C592.47 93.8047 608.745 87.0651 622.94 92.9462Z" fill="white"/>
</g>
<defs>
<clipPath id="clip0_12409_159847">
<rect width="800" height="800" rx="400" fill="white"/>
</clipPath>
</defs>
</svg>
